PathFileType	4	(X/Y/Z)	RBDS011static.trc
DataRate	CameraRate	NumFrames	NumMarkers	Units	OrigDataRate	OrigDataStartFrame	OrigNumFrames
150.000000	150.000000	4	48	mm	150.000000	37	150
Frame#	Time	L.Ankle			L.Ankle.Medial			L.ASIS			L.GTR			L.Heel.Bottom			L.Heel.Lateral			L.Heel.Top			L.HF			L.Iliac.Crest			L.Knee			L.Knee.Medial			L.MT1			L.MT2			L.MT5			L.PSIS			L.Shank.Bottom.Lateral			L.Shank.Bottom.Medial			L.Shank.Top.Lateral			L.Shank.Top.Medial			L.Thigh.Bottom.Lateral			L.Thigh.Bottom.Medial			L.Thigh.Top.Lateral			L.Thigh.Top.Medial			L.TT			R.Ankle			R.Ankle.Medial			R.ASIS			R.GTR			R.Heel.Bottom			R.Heel.Lateral			R.Heel.Top			R.HF			R.Iliac.Crest			R.Knee			R.Knee.Medial			R.MT1			R.MT2			R.MT5			R.PSIS			R.Shank.Bottom.Lateral			R.Shank.Bottom.Medial			R.Shank.Top.Lateral			R.Shank.Top.Medial			R.Thigh.Bottom.Lateral			R.Thigh.Bottom.Medial			R.Thigh.Top.Lateral			R.Thigh.Top.Medial			R.TT			
		X1	Y1	Z1	X2	Y2	Z2	X3	Y3	Z3	X4	Y4	Z4	X5	Y5	Z5	X6	Y6	Z6	X7	Y7	Z7	X8	Y8	Z8	X9	Y9	Z9	X10	Y10	Z10	X11	Y11	Z11	X12	Y12	Z12	X13	Y13	Z13	X14	Y14	Z14	X15	Y15	Z15	X16	Y16	Z16	X17	Y17	Z17	X18	Y18	Z18	X19	Y19	Z19	X20	Y20	Z20	X21	Y21	Z21	X22	Y22	Z22	X23	Y23	Z23	X24	Y24	Z24	X25	Y25	Z25	X26	Y26	Z26	X27	Y27	Z27	X28	Y28	Z28	X29	Y29	Z29	X30	Y30	Z30	X31	Y31	Z31	X32	Y32	Z32	X33	Y33	Z33	X34	Y34	Z34	X35	Y35	Z35	X36	Y36	Z36	X37	Y37	Z37	X38	Y38	Z38	X39	Y39	Z39	X40	Y40	Z40	X41	Y41	Z41	X42	Y42	Z42	X43	Y43	Z43	X44	Y44	Z44	X45	Y45	Z45	X46	Y46	Z46	X47	Y47	Z47	X48	Y48	Z48	

38	0.2466666666666667	714.0403442382813	107.5196533203125	1037.2919921875	735.5689697265625	120.8404998779297	1120.559204101563	881.25537109375	1028.961669921875	1087.848876953125	822.4935302734375	919.9163818359375	1033.146240234375	639.0536499023438	42.69580841064453	1083.9248046875	663.4296264648438	57.3665771484375	1044.943115234375	649.7025756835938	91.38092041015625	1085.614379882813	751.4589233398438	471.4351196289063	1035.703857421875	810.319580078125	1089.531860351563	1050.318237304688	756.672607421875	537.82275390625	1040.978271484375	761.742431640625	517.8579711914063	1162.147216796875	864.8673706054688	54.44906616210938	1124.969604492188	876.6259155273438	66.28898620605469	1077.379272460938	836.2484741210938	49.42189407348633	1009.173950195313	707.0869750976563	1043.396728515625	1152.639404296875	707.5000610351563	189.1268005371094	1035.379516601563	672.6673583984375	193.1812438964844	1078.031127929688	704.9271850585938	269.1290283203125	1026.47412109375	672.5521240234375	273.7154235839844	1069.756591796875	778.7103881835938	646.558837890625	1026.82568359375	717.7389526367188	647.3347778320313	1067.053344726563	772.7468872070313	756.7102661132813	1021.959228515625	718.7269287109375	757.8349609375	1065.111572265625	813.5293579101563	456.1039428710938	1080.9873046875	714.3082885742188	107.826416015625	1416.01025390625	736.57177734375	126.1369552612305	1334.038452148438	864.254638671875	1033.181640625	1342.7666015625	803.7490234375	924.61474609375	1397.439453125	640.0884399414063	43.93784713745117	1374.705200195313	666.7792358398438	64.37406921386719	1414.71875	650.875244140625	93.81549072265625	1373.68896484375	751.3525390625	476.6712646484375	1409.333129882813	798.2689208984375	1081.871826171875	1369.0361328125	760.9885864257813	539.0321044921875	1402.974853515625	764.7941284179688	523.4019165039063	1280.758911132813	861.8727416992188	57.77560043334961	1327.244750976563	870.5689086914063	71.42995452880859	1372.98095703125	841.9593505859375	49.20745468139648	1444.387451171875	699.9427490234375	1046.985717773438	1254.35888671875	701.549072265625	182.3204193115234	1414.09814453125	669.6388549804688	190.9215545654297	1374.975708007813	705.7890014648438	266.5580749511719	1425.43017578125	671.7800903320313	270.3374938964844	1384.019653320313	760.2427978515625	655.2390747070313	1408.240478515625	707.9199829101563	655.34619140625	1355.694213867188	755.4658813476563	764.7360229492188	1409.371337890625	707.0762329101563	765.892822265625	1360.107666015625	812.8040161132813	460.3342590332031	1372.070190429688	
39	0.2533333333333334	714.053955078125	107.5086288452148	1037.296630859375	735.5800170898438	120.8346405029297	1120.559204101563	881.2531127929688	1028.959228515625	1087.850952148438	822.5060424804688	919.9242553710938	1033.142944335938	639.0533447265625	42.69970321655273	1083.91796875	663.4324951171875	57.36911010742188	1044.939331054688	649.7001342773438	91.38142395019531	1085.610229492188	751.4724731445313	471.4407348632813	1035.712768554688	810.3204345703125	1089.522827148438	1050.3115234375	756.683349609375	537.8137817382813	1040.985595703125	761.7487182617188	517.8423461914063	1162.150024414063	864.8722534179688	54.44416809082031	1124.966064453125	876.6221313476563	66.28929901123047	1077.377563476563	836.2549438476563	49.42348480224609	1009.174072265625	707.0867309570313	1043.38818359375	1152.632934570313	707.5122680664063	189.1200561523438	1035.3876953125	672.6717529296875	193.1786193847656	1078.02099609375	704.9400024414063	269.12841796875	1026.479125976563	672.5487060546875	273.7179870605469	1069.751220703125	778.7227783203125	646.55712890625	1026.826904296875	717.7533569335938	647.3333740234375	1067.027099609375	772.7544555664063	756.7158203125	1021.954467773438	718.734619140625	757.8347778320313	1065.10693359375	813.5383911132813	456.095703125	1080.986450195313	714.3014526367188	107.8215484619141	1416.024536132813	736.5689086914063	126.1390686035156	1334.018798828125	864.2319946289063	1033.18310546875	1342.7568359375	803.7382202148438	924.6248168945313	1397.439086914063	640.0836791992188	43.94344329833984	1374.706787109375	666.7695922851563	64.37593078613281	1414.7158203125	650.86767578125	93.80992889404297	1373.698486328125	751.3541259765625	476.6700744628906	1409.322875976563	798.2435302734375	1081.875366210938	1369.025390625	760.9990844726563	539.0321655273438	1402.9736328125	764.81005859375	523.400146484375	1280.754272460938	861.8746948242188	57.78522109985352	1327.236938476563	870.5647583007813	71.44193267822266	1372.971801757813	841.9595947265625	49.21317291259766	1444.382934570313	699.9321899414063	1046.9755859375	1254.344848632813	701.5476684570313	182.3202056884766	1414.093139648438	669.6334838867188	190.916015625	1374.971313476563	705.7860717773438	266.558837890625	1425.430541992188	671.7744750976563	270.343994140625	1384.005004882813	760.2365112304688	655.2445068359375	1408.226806640625	707.9116821289063	655.34033203125	1355.673095703125	755.454833984375	764.7405395507813	1409.365356445313	707.0762329101563	765.9000244140625	1360.103271484375	812.7972412109375	460.3309326171875	1372.05126953125	
40	0.26	714.0353393554688	107.5205535888672	1037.283081054688	735.5704345703125	120.8348617553711	1120.558471679688	881.25341796875	1028.959228515625	1087.856811523438	822.4891967773438	919.926025390625	1033.134521484375	639.044189453125	42.70844650268555	1083.912719726563	663.4276733398438	57.36754608154297	1044.940307617188	649.7068481445313	91.37944793701172	1085.606079101563	751.47705078125	471.4427795410156	1035.717407226563	810.3192138671875	1089.518676757813	1050.306030273438	756.6781616210938	537.818115234375	1040.973388671875	761.7367553710938	517.8524169921875	1162.141235351563	864.8629760742188	54.45254516601563	1124.960083007813	876.6146850585938	66.30265808105469	1077.375366210938	836.2548217773438	49.42932510375977	1009.168823242188	707.0798950195313	1043.384887695313	1152.625	707.5027465820313	189.1315460205078	1035.373046875	672.674072265625	193.1750946044922	1078.029418945313	704.9386596679688	269.1300659179688	1026.473510742188	672.5594482421875	273.718994140625	1069.74951171875	778.71435546875	646.5650634765625	1026.833984375	717.7485961914063	647.333984375	1067.051391601563	772.7554931640625	756.7035522460938	1021.952209472656	718.7442016601563	757.835693359375	1065.101318359375	813.545166015625	456.1021423339844	1080.9794921875	714.29248046875	107.829231262207	1416.015747070313	736.5638427734375	126.1430892944336	1334.023193359375	864.2113647460938	1033.187255859375	1342.755981445313	803.7110595703125	924.6217651367188	1397.42333984375	640.08251953125	43.94692230224609	1374.707641601563	666.764892578125	64.37525177001953	1414.71142578125	650.8634033203125	93.81692504882813	1373.69482421875	751.3578491210938	476.6664428710938	1409.333740234375	798.2157592773438	1081.88330078125	1369.01513671875	760.9930419921875	539.0338134765625	1402.97216796875	764.8115844726563	523.3983764648438	1280.744873046875	861.8677978515625	57.78673934936523	1327.235473632813	870.5479736328125	71.44444274902344	1372.971435546875	841.9562377929688	49.2241325378418	1444.381713867188	699.9213256835938	1046.978881835938	1254.337646484375	701.5313110351563	182.3258666992188	1414.089965820313	669.6332397460938	190.9220123291016	1374.962646484375	705.7789916992188	266.5525817871094	1425.427490234375	671.7763671875	270.3407897949219	1384.01513671875	760.2267456054688	655.2422485351563	1408.227294921875	707.9056396484375	655.3430786132813	1355.675537109375	755.443115234375	764.7420654296875	1409.352172851563	707.0639038085938	765.897216796875	1360.0908203125	812.797607421875	460.3353576660156	1372.059448242188	
41	0.2666666666666667	714.0385131835938	107.5064163208008	1037.298950195313	735.55908203125	120.8351593017578	1120.563232421875	881.2611083984375	1028.956665039063	1087.863647460938	822.5086669921875	919.9163208007813	1033.148071289063	639.0443115234375	42.6971321105957	1083.92138671875	663.4244384765625	57.36227035522461	1044.943115234375	649.6974487304688	91.37562561035156	1085.608154296875	751.509033203125	471.4297790527344	1035.714477539063	810.3062133789063	1089.506958007813	1050.306274414063	756.7098388671875	537.8135986328125	1040.978759765625	761.7518920898438	517.8487548828125	1162.144165039063	864.8716430664063	54.45765686035156	1124.975463867188	876.6174926757813	66.29658508300781	1077.381591796875	836.2545776367188	49.43032836914063	1009.175720214844	707.0828857421875	1043.373291015625	1152.619873046875	707.5103149414063	189.1188354492188	1035.379638671875	672.6685180664063	193.1738586425781	1078.025268554688	704.9494018554688	269.1269226074219	1026.47607421875	672.5575561523438	273.7156982421875	1069.744384765625	778.7321166992188	646.5468139648438	1026.845581054688	717.7652587890625	647.3306274414063	1067.054809570313	772.7628784179688	756.7023315429688	1021.949951171875	718.7578735351563	757.8292846679688	1065.10400390625	813.5556640625	456.0917358398438	1080.983276367188	714.2915649414063	107.8443374633789	1416.011962890625	736.5651245117188	126.1392288208008	1334.039428710938	864.1875610351563	1033.190551757813	1342.766479492188	803.6947631835938	924.6229248046875	1397.424926757813	640.07421875	43.94504165649414	1374.703735351563	666.7611083984375	64.37609100341797	1414.70751953125	650.8627319335938	93.81443023681641	1373.6826171875	751.3438110351563	476.6725158691406	1409.3310546875	798.1881103515625	1081.8720703125	1369.0048828125	760.9921875	539.0352783203125	1402.969970703125	764.8024291992188	523.3964233398438	1280.743530273438	861.8818359375	57.79297256469727	1327.24462890625	870.5503540039063	71.44660949707031	1372.98583984375	841.9549560546875	49.21749877929688	1444.389526367188	699.9098510742188	1046.96923828125	1254.320434570313	701.5272827148438	182.3262939453125	1414.095825195313	669.6278686523438	190.9197540283203	1374.966064453125	705.767578125	266.5523376464844	1425.42919921875	671.7552490234375	270.3428955078125	1384.005004882813	760.2007446289063	655.2490234375	1408.216796875	707.892822265625	655.3380126953125	1355.659301757813	755.4186401367188	764.7431030273438	1409.350463867188	707.0437622070313	765.900390625	1360.06396484375	812.8012084960938	460.340576171875	1372.0673828125	
